HIERARCHY
ROOT Hips
{
	OFFSET 0.000000 0.000000 0.000000
	CHANNELS 6 Xposition Yposition Zposition Xrotation Yrotation Zrotation
	JOINT LeftUpLeg_virtual
	{
		OFFSET 0.000000 0.000000 0.000000
		CHANNELS 3 Xrotation Yrotation Zrotation
		JOINT LeftUpLeg
		{
			OFFSET 15.427100 -6.655098 0.678600
			CHANNELS 3 Xrotation Yrotation Zrotation
			JOINT LeftLeg
			{
				OFFSET 4.081073 -39.591068 13.024000
				CHANNELS 3 Xrotation Yrotation Zrotation
				JOINT LeftFoot
				{
					OFFSET -4.081074 -37.707932 -15.979700
					CHANNELS 3 Xrotation Yrotation Zrotation
					JOINT LeftToeBase
					{
						OFFSET 5.346399 -15.068900 20.645000
						CHANNELS 3 Xrotation Yrotation Zrotation
						JOINT LeftToe_End
						{
							OFFSET 2.754700 0.931300 11.300900
							CHANNELS 3 Xrotation Yrotation Zrotation
							End Site
							{
								OFFSET 0 0 0
							}
						}
					}
				}
			}
		}
	}
	JOINT RightUpLeg_virtual
	{
		OFFSET 0.000000 0.000000 0.000000
		CHANNELS 3 Xrotation Yrotation Zrotation
		JOINT RightUpLeg
		{
			OFFSET -15.569500 -6.655098 0.678600
			CHANNELS 3 Xrotation Yrotation Zrotation
			JOINT RightLeg
			{
				OFFSET -4.081825 -39.591045 13.023800
				CHANNELS 3 Xrotation Yrotation Zrotation
				JOINT RightFoot
				{
					OFFSET 4.081824 -37.707954 -15.979600
					CHANNELS 3 Xrotation Yrotation Zrotation
					JOINT RightToeBase
					{
						OFFSET -5.346400 -15.068900 20.645000
						CHANNELS 3 Xrotation Yrotation Zrotation
						JOINT RightToe_End
						{
							OFFSET -2.754700 0.931300 11.300900
							CHANNELS 3 Xrotation Yrotation Zrotation
							End Site
							{
								OFFSET 0 0 0
							}
						}
					}
				}
			}
		}
	}
	JOINT Spine_virtual
	{
		OFFSET 0.000000 0.000000 0.000000
		CHANNELS 3 Xrotation Yrotation Zrotation
		JOINT Spine
		{
			OFFSET -0.279200 12.230698 -2.892100
			CHANNELS 3 Xrotation Yrotation Zrotation
			JOINT Spine1
			{
				OFFSET -0.232667 10.192268 -1.242267
				CHANNELS 3 Xrotation Yrotation Zrotation
				JOINT Spine1_split
				{
					OFFSET -0.232667 10.192268 -1.242267
					CHANNELS 3 Xrotation Yrotation Zrotation
					JOINT Spine2
					{
						OFFSET -0.232667 10.192268 -1.242267
						CHANNELS 3 Xrotation Yrotation Zrotation
						JOINT Neck_virtual
						{
							OFFSET 0.000000 0.000000 0.000000
							CHANNELS 3 Xrotation Yrotation Zrotation
							JOINT Neck
							{
								OFFSET -0.418800 17.814194 8.416900
								CHANNELS 3 Xrotation Yrotation Zrotation
								JOINT Head
								{
									OFFSET 0.000000 7.031097 3.806800
									CHANNELS 3 Xrotation Yrotation Zrotation
									JOINT HeadTop_End
									{
										OFFSET 0.000000 24.646606 12.978600
										CHANNELS 3 Xrotation Yrotation Zrotation
										End Site
										{
											OFFSET 0 0 0
										}
									}
								}
							}
						}
						JOINT LeftShoulder_virtual
						{
							OFFSET 0.000000 0.000000 0.000000
							CHANNELS 3 Xrotation Yrotation Zrotation
							JOINT LeftShoulder
							{
								OFFSET 8.476499 7.247704 -3.868750
								CHANNELS 3 Xrotation Yrotation Zrotation
								JOINT LeftShoulder_split
								{
									OFFSET 8.476499 7.247704 -3.868750
									CHANNELS 3 Xrotation Yrotation Zrotation
									JOINT LeftArm
									{
										OFFSET 9.308998 -2.777710 0.208600
										CHANNELS 3 Xrotation Yrotation Zrotation
										JOINT LeftForeArm
										{
											OFFSET 29.972298 0.000000 0.000000
											CHANNELS 3 Xrotation Yrotation Zrotation
											JOINT LeftHand
											{
												OFFSET 26.026505 0.000000 0.000000
												CHANNELS 3 Xrotation Yrotation Zrotation
												End Site
												{
													OFFSET 0 0 0
												}
											}
										}
									}
								}
							}
						}
						JOINT RightShoulder_virtual
						{
							OFFSET 0.000000 0.000000 0.000000
							CHANNELS 3 Xrotation Yrotation Zrotation
							JOINT RightShoulder
							{
								OFFSET -7.570500 7.247704 -3.868750
								CHANNELS 3 Xrotation Yrotation Zrotation
								JOINT RightShoulder_split
								{
									OFFSET -7.570500 7.247704 -3.868750
									CHANNELS 3 Xrotation Yrotation Zrotation
									JOINT RightArm
									{
										OFFSET -9.308998 -2.777710 0.208500
										CHANNELS 3 Xrotation Yrotation Zrotation
										JOINT RightForeArm
										{
											OFFSET -29.972300 0.000000 0.000000
											CHANNELS 3 Xrotation Yrotation Zrotation
											JOINT RightHand
											{
												OFFSET -26.026505 0.000000 0.000000
												CHANNELS 3 Xrotation Yrotation Zrotation
												End Site
												{
													OFFSET 0 0 0
												}
											}
										}
									}
								}
							}
						}
					}
				}
			}
		}
	}
}
MOTION
Frames: 6
Frame Time: 0.03333333
-6.559620 88.426338 -1.416496 0.000000 0.000000 0.000000 2.468436 27.739073 1.030253 -32.453599 -23.565751 3.051423 27.090443 14.541343 -7.914277 4.460760 -2.554371 -7.960785 -2.984899 -1.725347 -0.462253 0.000000 0.000000 0.000000 2.468436 27.739073 1.030253 4.844879 -26.848956 -6.559955 25.904392 -6.736315 8.316097 -30.199828 -12.736137 1.565681 -1.306434 -0.028480 0.200604 0.000000 0.000000 0.000000 2.468436 27.739073 1.030253 3.932282 4.878989 -2.033614 0.662378 3.033930 0.848257 0.000000 0.000000 0.000000 0.000000 0.000000 0.000000 0.672735 3.142731 0.838938 -2.710829 10.151287 -6.043546 -8.274088 5.419484 8.279210 0.000000 0.000000 0.000000 0.672735 3.142731 0.838938 -0.170427 1.694763 -1.674851 0.000000 0.000000 0.000000 -70.359165 1.043901 -26.985318 2.443034 -70.793278 3.754324 0.000000 0.000000 0.000000 0.672735 3.142731 0.838938 4.020289 15.450591 6.652469 0.000000 0.000000 0.000000 13.125178 -8.190047 63.320805 15.659587 40.753526 -6.335582 0.000000 0.000000 0.000000 
-6.537294 88.518440 -1.621223 0.000000 0.000000 0.000000 2.954301 24.939789 0.695258 -31.945748 -22.261984 4.565771 27.548919 15.013116 -7.989061 3.828080 -2.008941 -8.312000 -3.078442 -1.876286 -0.501848 0.000000 0.000000 0.000000 2.954301 24.939789 0.695258 3.253442 -24.784684 -6.838379 26.294809 -6.338889 8.032168 -29.734259 -12.346236 1.492122 -1.298626 -0.028006 0.181754 0.000000 0.000000 0.000000 2.954301 24.939789 0.695258 4.061742 4.708136 -2.064579 0.745717 2.934843 0.846918 0.000000 0.000000 0.000000 0.000000 0.000000 0.000000 0.756888 3.044786 0.839889 -3.457282 7.577846 -5.438824 -6.770386 3.128969 8.503117 0.000000 0.000000 0.000000 0.756888 3.044786 0.839889 -0.084036 0.806784 -1.884201 0.000000 0.000000 0.000000 -70.540315 1.291856 -27.179155 2.895059 -73.071051 3.786741 0.000000 0.000000 0.000000 0.756888 3.044786 0.839889 4.018017 15.343501 6.386901 0.000000 0.000000 0.000000 12.582815 -8.065736 63.241855 15.851392 41.731978 -6.506773 0.000000 0.000000 0.000000 
-6.495502 88.604782 -1.858753 0.000000 0.000000 0.000000 3.555741 21.987152 0.365201 -31.567666 -21.533621 6.021729 28.091170 15.826112 -8.112778 3.217902 -1.146179 -8.877100 -3.129703 -1.945505 -0.512979 0.000000 0.000000 0.000000 3.555741 21.987152 0.365201 1.461464 -22.594505 -7.127647 26.740146 -5.952194 7.799489 -29.201541 -11.950628 1.422017 -1.290846 -0.027611 0.165124 0.000000 0.000000 0.000000 3.555741 21.987152 0.365201 4.162085 4.469187 -2.133374 0.813766 2.798221 0.871274 0.000000 0.000000 0.000000 0.000000 0.000000 0.000000 0.822900 2.911497 0.866819 -4.434307 5.616291 -5.025564 -5.511907 1.377576 8.838564 0.000000 0.000000 0.000000 0.822900 2.911497 0.866819 0.049268 0.112967 -1.841730 0.000000 0.000000 0.000000 -70.965372 1.555736 -28.323603 3.446541 -75.023440 3.823279 0.000000 0.000000 0.000000 0.822900 2.911497 0.866819 4.069650 15.320686 6.024855 0.000000 0.000000 0.000000 12.145396 -7.778641 63.262517 16.010686 42.685342 -6.730046 0.000000 0.000000 0.000000 
-6.435606 88.710243 -2.117168 0.000000 0.000000 0.000000 4.249173 18.827215 0.043795 -31.191302 -21.181361 7.478687 28.724637 16.987444 -8.222873 2.579715 0.075580 -9.703053 -3.140424 -1.957279 -0.512784 0.000000 0.000000 0.000000 4.249173 18.827215 0.043795 -0.478974 -20.312549 -7.370001 27.127030 -5.523839 7.596991 -28.523457 -11.515381 1.402685 -1.288608 -0.027450 0.158487 0.000000 0.000000 0.000000 4.249173 18.827215 0.043795 4.231827 4.263639 -2.190236 0.895980 2.686893 0.916957 0.000000 0.000000 0.000000 0.000000 0.000000 0.000000 0.902539 2.804682 0.916454 -5.834663 3.676900 -4.812161 -4.270057 -0.536821 9.458445 0.000000 0.000000 0.000000 0.902539 2.804682 0.916454 -0.033589 -0.456569 -1.544512 0.000000 0.000000 0.000000 -71.151324 1.754730 -30.563884 3.947335 -76.397387 4.010037 0.000000 0.000000 0.000000 0.902539 2.804682 0.916454 4.107275 15.021811 5.670997 0.000000 0.000000 0.000000 11.924079 -7.209789 63.117320 16.375269 43.773658 -6.874448 0.000000 0.000000 0.000000 
-6.335739 88.847351 -2.373619 0.000000 0.000000 0.000000 4.977619 15.384632 -0.262057 -30.729205 -20.677756 9.060815 29.427563 18.235319 -8.348182 1.919561 1.420747 -10.595538 -3.150094 -1.967635 -0.512895 0.000000 0.000000 0.000000 4.977619 15.384632 -0.262057 -2.529038 -18.017305 -7.434090 27.436487 -4.939918 7.262883 -27.715256 -10.948514 1.297291 -1.288304 -0.027474 0.159687 0.000000 0.000000 0.000000 4.977619 15.384632 -0.262057 4.334072 4.014635 -2.263783 0.966081 2.550134 0.971378 0.000000 0.000000 0.000000 0.000000 0.000000 0.000000 0.969174 2.673399 0.972875 -7.688305 0.991038 -4.386641 -2.678515 -2.893385 9.949196 0.000000 0.000000 0.000000 0.969174 2.673399 0.972875 -0.015765 -0.910669 -1.245246 0.000000 0.000000 0.000000 -71.114031 1.752299 -32.948071 4.570792 -77.720955 4.244646 0.000000 0.000000 0.000000 0.969174 2.673399 0.972875 4.169829 14.682248 5.352212 0.000000 0.000000 0.000000 11.719942 -6.389685 62.862479 16.656610 44.636116 -6.992366 0.000000 0.000000 0.000000 
-6.189528 89.002609 -2.605484 0.000000 0.000000 0.000000 5.686865 11.604041 -0.541135 -30.130778 -19.973700 10.797569 30.240430 19.511492 -8.503358 1.217978 2.848063 -11.544926 -3.158565 -1.976325 -0.512909 0.000000 0.000000 0.000000 5.686865 11.604041 -0.541135 -4.627204 -15.704936 -7.317481 27.669726 -4.213787 6.796512 -26.717554 -10.312253 1.258224 -1.310508 -0.028633 0.207452 0.000000 0.000000 0.000000 5.686865 11.604041 -0.541135 4.406429 3.738237 -2.280159 1.078602 2.380406 0.982560 0.000000 0.000000 0.000000 0.000000 0.000000 0.000000 1.082129 2.506127 0.989467 -9.865803 -2.833464 -3.739663 -0.630943 -6.097440 10.088656 0.000000 0.000000 0.000000 1.082129 2.506127 0.989467 0.050819 -1.617019 -1.107898 0.000000 0.000000 0.000000 -70.898873 1.313825 -34.708829 5.127633 -78.615450 4.478176 0.000000 0.000000 0.000000 1.082129 2.506127 0.989467 4.204816 14.386291 5.064110 0.000000 0.000000 0.000000 11.404986 -5.538672 62.463432 16.901551 45.248586 -6.999897 0.000000 0.000000 0.000000 
